<svg width="164" height="164" xmlns="http://www.w3.org/2000/svg" xmlns:xlink="http://www.w3.org/1999/xlink"><svg viewBox="-1 -1 514 514" width="82" height="82" xmlns="http://www.w3.org/2000/svg"><path d="M429.596 73.081H25.659C11.51 73.081 0 84.591 0 98.74v202.175c0 14.148 11.51 25.659 25.659 25.659H41.14a7.286 7.286 0 1 0 0-14.573H25.659c-6.113 0-11.086-4.973-11.086-11.086V98.74c0-6.113 4.974-11.086 11.086-11.086h403.937c6.113 0 11.085 4.973 11.085 11.086v70.821a7.286 7.286 0 0 0 7.287 7.286 7.285 7.285 0 0 0 7.286-7.286V98.74c0-14.149-11.51-25.659-25.658-25.659z" fill="#FFF"/><path d="M426.464 128.047a49.823 49.823 0 0 1-25.787-26.048c-2.131-4.968-7.022-8.178-12.46-8.178H67.038c-5.438 0-10.329 3.21-12.461 8.179a49.818 49.818 0 0 1-25.787 26.047c-4.891 2.155-8.051 7.024-8.051 12.405v118.752c0 5.381 3.16 10.25 8.051 12.405a49.886 49.886 0 0 1 8.121 4.527 7.245 7.245 0 0 0 4.119 1.281 7.287 7.287 0 0 0 4.132-13.293 64.532 64.532 0 0 0-9.851-5.563V141.094c14.491-6.571 25.947-18.143 32.376-32.701h319.88c6.431 14.558 17.887 26.13 32.376 32.701v28.527a7.286 7.286 0 1 0 14.572 0v-29.169c0-5.382-3.16-10.251-8.051-12.405z" fill="#FFF"/><path d="M302.623 166.893c-13.077-29.74-42.515-48.956-74.995-48.956-32.456 0-61.883 19.194-74.972 48.901a7.287 7.287 0 0 0 13.336 5.876c10.761-24.423 34.954-40.203 61.636-40.203 26.702 0 50.903 15.798 61.655 40.248a7.288 7.288 0 0 0 9.603 3.737 7.285 7.285 0 0 0 3.737-9.603z" fill="#FFF"/><path d="M486.341 185.425H232.513v-18.591c9.416.673 12.914 4.977 16.142 4.977 4.036 0 5.919-5.111 5.919-7.667 0-6.591-12.914-9.416-22.061-9.685v-3.632c0-1.614-2.018-3.094-4.035-3.094-2.287 0-3.901 1.48-3.901 3.094v3.901c-12.779 1.345-25.558 8.071-25.558 25.02 0 2.067.202 3.947.564 5.677H82.403c-14.148 0-25.658 11.51-25.658 25.659V413.26c0 14.148 11.51 25.659 25.658 25.659H486.34c14.149 0 25.659-11.51 25.659-25.659V211.085c.001-14.148-11.509-25.66-25.658-25.66zm-260.957-18.321v18.321h-10.54c-1.49-1.794-2.374-4.039-2.374-7.022.001-6.994 5.381-10.357 12.914-11.299zm260.957 257.242H82.403c-6.113 0-11.085-4.973-11.085-11.086V211.085c0-6.113 4.972-11.086 11.085-11.086H486.34c6.113 0 11.086 4.973 11.086 11.086V413.26h.001c0 6.112-4.974 11.086-11.086 11.086z" fill="#FFF"/><path d="M483.21 240.391a49.825 49.825 0 0 1-25.788-26.048c-2.131-4.968-7.022-8.178-12.46-8.178H123.783c-5.438 0-10.329 3.21-12.461 8.179a49.816 49.816 0 0 1-25.786 26.047c-4.891 2.155-8.051 7.024-8.051 12.405v118.752c0 5.381 3.16 10.25 8.051 12.405a49.816 49.816 0 0 1 25.787 26.048c2.131 4.968 7.022 8.178 12.46 8.178h321.179c5.438 0 10.329-3.21 12.461-8.179a49.818 49.818 0 0 1 25.787-26.047c4.891-2.155 8.051-7.024 8.051-12.405V252.797c0-5.383-3.16-10.251-8.051-12.406zm-6.522 130.515c-14.491 6.571-25.947 18.143-32.376 32.701h-319.88c-6.429-14.557-17.886-26.13-32.376-32.701V253.438c14.49-6.571 25.947-18.143 32.376-32.701h319.88c6.429 14.557 17.886 26.13 32.376 32.701v117.468z" fill="#FFF"/><path d="M284.372 230.283c-45.154 0-81.889 36.735-81.889 81.889s36.735 81.889 81.889 81.889c45.155 0 81.89-36.735 81.89-81.889 0-45.154-36.735-81.889-81.89-81.889zm0 149.206c-37.119 0-67.316-30.198-67.316-67.316 0-37.119 30.197-67.316 67.316-67.316s67.317 30.198 67.317 67.316-30.199 67.316-67.317 67.316z" fill="#FFF"/><path d="M289.079 303.428v-27.307c9.416.672 12.913 4.977 16.142 4.977 4.036 0 5.919-5.111 5.919-7.667 0-6.591-12.914-9.416-22.061-9.685v-3.632c0-1.614-2.018-3.094-4.035-3.094-2.287 0-3.901 1.479-3.901 3.094v3.901c-12.779 1.345-25.558 8.071-25.558 25.02 0 17.218 13.452 22.061 25.558 26.365v31.611c-13.721-1.076-17.353-10.492-21.792-10.492-3.363 0-6.188 4.439-6.188 7.668 0 6.591 11.299 15.604 27.979 15.873v4.17c0 1.614 1.614 3.094 3.901 3.094 2.018 0 4.035-1.479 4.035-3.094v-4.573c14.528-2.018 24.482-11.165 24.482-27.71.001-18.296-12.778-24.215-24.481-28.519zm-7.129-2.556c-7.13-2.69-12.914-5.515-12.914-13.182 0-6.995 5.38-10.358 12.914-11.299v24.481zm6.322 45.87v-28.383c6.591 2.825 11.837 6.591 11.837 15.066.001 7.669-4.573 11.973-11.837 13.317z" fill="#FFF"/></svg><svg viewBox="-1 -1 56 56" width="82" height="82" x="82" xmlns="http://www.w3.org/2000/svg"><g fill="#FFF"><path d="M53.516 1.143a.999.999 0 0 0-.983-.027L36 9.869 19.468 1.116c-.013-.007-.028-.009-.041-.015a1.004 1.004 0 0 0-.147-.055c-.028-.008-.055-.017-.083-.023a1.04 1.04 0 0 0-.168-.017c-.025-.001-.05-.004-.076-.003a.968.968 0 0 0-.16.025c-.03.006-.06.01-.089.019l-.02.004-18 6A1 1 0 0 0 0 8v43a1 1 0 0 0 1.316.948l17.646-5.882 16.657 6.859c.014.006.03.004.044.009.11.039.222.066.337.066a1 1 0 0 0 .266-.039c.028-.008.054-.021.082-.031.04-.015.082-.026.12-.046l17-9c.327-.173.532-.514.532-.884V2c0-.351-.184-.676-.484-.857zM2 8.721l16-5.333V30.38c-.43.078-.854.166-1.264.274a1 1 0 1 0 .513 1.934c.24-.064.502-.096.751-.148v11.84L2 49.612V8.721zM20 32.16c.321-.025.632-.066.961-.073a1.001 1.001 0 0 0-.021-2h-.022c-.31.007-.615.024-.918.045V3.661l15 7.941v21.194a14.952 14.952 0 0 1-2.201-.262 1 1 0 0 0-.38 1.963 16.99 16.99 0 0 0 2.582.289v15.721L20 44.33V32.16zm32 10.237l-15 7.941v-15.66a.993.993 0 0 0 .587-.98.994.994 0 0 0-.587-.821V11.602l15-7.941v38.736z"/><path d="M11 9c-2.757 0-5 2.243-5 5a5.009 5.009 0 0 0 4 4.899V21a1 1 0 1 0 2 0v-2.101A5.009 5.009 0 0 0 16 14c0-2.757-2.243-5-5-5zm0 8c-1.654 0-3-1.346-3-3s1.346-3 3-3 3 1.346 3 3-1.346 3-3 3zm34.07 10.673a1 1 0 0 0 1.296-.568c.47-1.199.847-2.553 1.123-4.024a1 1 0 0 0-.799-1.167 1.008 1.008 0 0 0-1.167.8c-.252 1.348-.595 2.58-1.019 3.663a1.001 1.001 0 0 0 .566 1.296zm-32.265 4.669a13.87 13.87 0 0 0-3.235 2.82 1 1 0 0 0 1.529 1.289 11.833 11.833 0 0 1 2.768-2.414 1.001 1.001 0 0 0-1.062-1.695zm-4.178 5.934a1 1 0 0 0-1.327.489c-1.026 2.226-1.28 4.023-1.291 4.099a.998.998 0 0 0 .992 1.135c.491 0 .919-.362.99-.861.002-.016.231-1.597 1.125-3.534a1.002 1.002 0 0 0-.489-1.328zm31.796-4.547a.998.998 0 0 0 .454-.109 10.419 10.419 0 0 0 3.384-2.786 1 1 0 1 0-1.56-1.252 8.414 8.414 0 0 1-2.735 2.257 1 1 0 0 0 .457 1.89zM29.17 31.432a12.399 12.399 0 0 1-.716-.322.996.996 0 0 0-.205-.078 32.59 32.59 0 0 0-3.173-.654.999.999 0 1 0-.302 1.977c.926.142 1.893.34 2.877.59.134.064.39.185.748.334a.999.999 0 0 0 1.308-.537 1 1 0 0 0-.537-1.31zm17.753-11.501l.065.002a1 1 0 0 0 .997-.937c.062-.961.093-1.978.093-3.02 0-.347-.003-.699-.01-1.058-.01-.553-.49-.973-1.018-.982a1 1 0 0 0-.982 1.018c.006.347.01.688.01 1.022 0 1-.03 1.973-.089 2.893a1 1 0 0 0 .934 1.062zm-38.63 8.776a.997.997 0 0 0 1.414 0L11 27.414l1.293 1.293a.997.997 0 0 0 1.414 0 .999.999 0 0 0 0-1.414L12.414 26l1.293-1.293a.999.999 0 1 0-1.414-1.414L11 24.586l-1.293-1.293a.999.999 0 1 0-1.414 1.414L9.586 26l-1.293 1.293a.999.999 0 0 0 0 1.414z"/></g></svg><svg viewBox="-1 -1 489.77 489.77" width="82" height="82" y="82" xmlns="http://www.w3.org/2000/svg"><path d="M345.487 487.566c2.2.1 4.3.2 6.5.2 23.5 0 43.1-8.5 58.5-25.2l.4-.4c5.5-6.6 11.7-12.6 18.3-18.9 4.5-4.3 9.1-8.7 13.4-13.3 20.5-21.4 20.4-48.5-.2-69.1l-57-57c-9.8-10.2-21.5-15.6-33.9-15.6-12.3 0-24.1 5.3-34.2 15.4l-33.7 33.7c-3-1.7-6.1-3.2-9.1-4.7-3.8-1.9-7.3-3.7-10.4-5.6-30.9-19.6-58.9-45.2-85.7-78.1-13.5-17-22.4-31.2-28.7-45.8 8.8-8 17-16.3 24.9-24.4 2.9-2.9 5.8-5.9 8.8-8.9 21.4-21.4 21.4-47.9 0-69.2l-28.3-28.3c-3.3-3.3-6.5-6.6-9.7-9.8-6.3-6.4-12.8-13.1-19.3-19.1-9.8-9.8-21.4-14.9-33.7-14.9-12.2 0-24 5.1-34.2 14.9l-35.5 35.4c-13 13-20.4 28.8-22 47.1-1.8 22.8 2.4 47 13.2 76.2 16.7 45.1 41.8 87 79 131.8 45.3 54 99.7 96.7 161.9 126.8 23.7 11.3 55.4 24.5 90.7 26.8zm-233.7-169.3c-35.4-42.6-59.1-82.2-74.8-124.6-9.7-26.1-13.3-46.4-11.8-65.7 1.1-12.5 5.9-22.9 14.9-31.8l35.3-35.3c5.4-5.2 11.3-7.9 17.1-7.9 5.7 0 11.3 2.7 16.7 8 6.3 5.9 12.4 12.1 18.8 18.6 3.2 3.3 6.5 6.7 9.9 10l28.3 28.3c11.6 11.6 11.6 23 0 34.6-3 3-6 6-8.9 9-8.8 8.9-17 17.3-26.1 25.4l-.5.5c-8.1 8.1-6.9 15.9-4.9 21.7.1.3.2.5.3.8 7.3 17.6 17.6 34.3 33.4 54.3 28.5 35.1 58.5 62.4 91.7 83.5 4.1 2.6 8.4 4.8 12.6 6.9 3.8 1.9 7.3 3.7 10.4 5.6.4.2.7.4 1.1.6 3.2 1.6 6.3 2.4 9.5 2.4 7.9 0 12.9-5 14.5-6.7l35.5-35.5c5.4-5.4 11.2-8.2 16.9-8.2 7 0 12.7 4.4 16.4 8.2l57.2 57.2c14 14 7.6 26.6-.3 34.9-4 4.3-8.2 8.3-12.6 12.6-6.7 6.4-13.6 13.1-19.9 20.6-10.8 11.6-23.6 17-40.3 17-1.6 0-3.3-.1-4.9-.2-31.1-2-59.9-14.1-81.6-24.4-59.2-28.5-110.9-69-153.9-120.4zm156.3-229c-6.7-1.1-13 3.4-14.1 10-1.1 6.7 3.4 13 10 14.1 27.5 4.7 52.5 17.7 72.5 37.6 19.9 19.9 32.9 45 37.6 72.5 1 6 6.2 10.2 12.1 10.2.7 0 1.4-.1 2.1-.2 6.7-1.1 11.2-7.5 10-14.1-5.5-32.5-20.9-62.2-44.4-85.7-23.7-23.6-53.3-38.9-85.8-44.4zm207.1 140.2c.7 0 1.4-.1 2.1-.2 6.7-1.1 11.2-7.5 10-14.1-9.1-53.8-34.5-102.7-73.4-141.6-39-38.9-87.9-64.3-141.7-73.4-6.7-1.1-13 3.4-14.1 10-1.1 6.7 3.4 13 10 14.1 48.7 8.3 93.1 31.3 128.4 66.6s58.3 79.7 66.6 128.4c1 6 6.2 10.2 12.1 10.2z" fill="#FFF"/></svg></svg>