<svg xmlns="http://www.w3.org/2000/svg" viewBox="0 0 511.999 511.999" style="enable-background:new 0 0 511.999 511.999" width="80" height="80"><path d="M429.596 73.081H25.659C11.51 73.081 0 84.591 0 98.74v202.175c0 14.148 11.51 25.659 25.659 25.659H41.14a7.286 7.286 0 1 0 0-14.573H25.659c-6.113 0-11.086-4.973-11.086-11.086V98.74c0-6.113 4.974-11.086 11.086-11.086h403.937c6.113 0 11.085 4.973 11.085 11.086v70.821a7.286 7.286 0 0 0 7.287 7.286 7.285 7.285 0 0 0 7.286-7.286V98.74c0-14.149-11.51-25.659-25.658-25.659z" fill="#FFF"/><path d="M426.464 128.047a49.823 49.823 0 0 1-25.787-26.048c-2.131-4.968-7.022-8.178-12.46-8.178H67.038c-5.438 0-10.329 3.21-12.461 8.179a49.818 49.818 0 0 1-25.787 26.047c-4.891 2.155-8.051 7.024-8.051 12.405v118.752c0 5.381 3.16 10.25 8.051 12.405a49.886 49.886 0 0 1 8.121 4.527 7.245 7.245 0 0 0 4.119 1.281 7.287 7.287 0 0 0 4.132-13.293 64.532 64.532 0 0 0-9.851-5.563V141.094c14.491-6.571 25.947-18.143 32.376-32.701h319.88c6.431 14.558 17.887 26.13 32.376 32.701v28.527a7.286 7.286 0 1 0 14.572 0v-29.169c0-5.382-3.16-10.251-8.051-12.405z" fill="#FFF"/><path d="M302.623 166.893c-13.077-29.74-42.515-48.956-74.995-48.956-32.456 0-61.883 19.194-74.972 48.901a7.287 7.287 0 0 0 13.336 5.876c10.761-24.423 34.954-40.203 61.636-40.203 26.702 0 50.903 15.798 61.655 40.248a7.288 7.288 0 0 0 9.603 3.737 7.285 7.285 0 0 0 3.737-9.603z" fill="#FFF"/><path d="M486.341 185.425H232.513v-18.591c9.416.673 12.914 4.977 16.142 4.977 4.036 0 5.919-5.111 5.919-7.667 0-6.591-12.914-9.416-22.061-9.685v-3.632c0-1.614-2.018-3.094-4.035-3.094-2.287 0-3.901 1.48-3.901 3.094v3.901c-12.779 1.345-25.558 8.071-25.558 25.02 0 2.067.202 3.947.564 5.677H82.403c-14.148 0-25.658 11.51-25.658 25.659V413.26c0 14.148 11.51 25.659 25.658 25.659H486.34c14.149 0 25.659-11.51 25.659-25.659V211.085c.001-14.148-11.509-25.66-25.658-25.66zm-260.957-18.321v18.321h-10.54c-1.49-1.794-2.374-4.039-2.374-7.022.001-6.994 5.381-10.357 12.914-11.299zm260.957 257.242H82.403c-6.113 0-11.085-4.973-11.085-11.086V211.085c0-6.113 4.972-11.086 11.085-11.086H486.34c6.113 0 11.086 4.973 11.086 11.086V413.26h.001c0 6.112-4.974 11.086-11.086 11.086z" fill="#FFF"/><path d="M483.21 240.391a49.825 49.825 0 0 1-25.788-26.048c-2.131-4.968-7.022-8.178-12.46-8.178H123.783c-5.438 0-10.329 3.21-12.461 8.179a49.816 49.816 0 0 1-25.786 26.047c-4.891 2.155-8.051 7.024-8.051 12.405v118.752c0 5.381 3.16 10.25 8.051 12.405a49.816 49.816 0 0 1 25.787 26.048c2.131 4.968 7.022 8.178 12.46 8.178h321.179c5.438 0 10.329-3.21 12.461-8.179a49.818 49.818 0 0 1 25.787-26.047c4.891-2.155 8.051-7.024 8.051-12.405V252.797c0-5.383-3.16-10.251-8.051-12.406zm-6.522 130.515c-14.491 6.571-25.947 18.143-32.376 32.701h-319.88c-6.429-14.557-17.886-26.13-32.376-32.701V253.438c14.49-6.571 25.947-18.143 32.376-32.701h319.88c6.429 14.557 17.886 26.13 32.376 32.701v117.468z" fill="#FFF"/><path d="M284.372 230.283c-45.154 0-81.889 36.735-81.889 81.889s36.735 81.889 81.889 81.889c45.155 0 81.89-36.735 81.89-81.889 0-45.154-36.735-81.889-81.89-81.889zm0 149.206c-37.119 0-67.316-30.198-67.316-67.316 0-37.119 30.197-67.316 67.316-67.316s67.317 30.198 67.317 67.316-30.199 67.316-67.317 67.316z" fill="#FFF"/><path d="M289.079 303.428v-27.307c9.416.672 12.913 4.977 16.142 4.977 4.036 0 5.919-5.111 5.919-7.667 0-6.591-12.914-9.416-22.061-9.685v-3.632c0-1.614-2.018-3.094-4.035-3.094-2.287 0-3.901 1.479-3.901 3.094v3.901c-12.779 1.345-25.558 8.071-25.558 25.02 0 17.218 13.452 22.061 25.558 26.365v31.611c-13.721-1.076-17.353-10.492-21.792-10.492-3.363 0-6.188 4.439-6.188 7.668 0 6.591 11.299 15.604 27.979 15.873v4.17c0 1.614 1.614 3.094 3.901 3.094 2.018 0 4.035-1.479 4.035-3.094v-4.573c14.528-2.018 24.482-11.165 24.482-27.71.001-18.296-12.778-24.215-24.481-28.519zm-7.129-2.556c-7.13-2.69-12.914-5.515-12.914-13.182 0-6.995 5.38-10.358 12.914-11.299v24.481zm6.322 45.87v-28.383c6.591 2.825 11.837 6.591 11.837 15.066.001 7.669-4.573 11.973-11.837 13.317z" fill="#FFF"/></svg>
